<?xml version="1.0" encoding="UTF-8"?><svg xmlns="http://www.w3.org/2000/svg" xmlns:xlink="http://www.w3.org/1999/xlink" viewBox="0 0 120 120"><defs><clipPath id="clippath-1"><ellipse cx="60" cy="60" rx="53.68" ry="53.47" fill="none"/></clipPath></defs><g isolation="isolate"><g id="Capa_1"><g><g opacity=".5"><path d="M60,5.98c29.91,0,54.25,24.23,54.25,54.02s-24.34,54.02-54.25,54.02S5.75,89.79,5.75,60,30.09,5.98,60,5.98m0-5C27.28,.98,.75,27.4,.75,60s26.53,59.02,59.25,59.02,59.25-26.42,59.25-59.02S92.72,.98,60,.98h0Z" fill="#855b82"/></g><ellipse cx="60" cy="60" rx="53.68" ry="53.47" fill="#d2a4ce"/><path d="M11.17,64.83c0-29.53,24.03-53.47,53.68-53.47,13.59,0,26,5.03,35.45,13.32-9.84-11.13-24.25-18.16-40.31-18.16C30.35,6.53,6.32,30.47,6.32,60c0,16,7.05,30.35,18.23,40.15-8.32-9.42-13.38-21.78-13.38-35.31Z" mix-blend-mode="overlay" opacity=".07"/><ellipse cx="60" cy="60" rx="53.68" ry="53.47" fill="none"/><path d="M40.16,54.3s2.34,14.22-8.05,25.14c36.96,14.8,54.95,1.37,54.95,1.37,0,0-5.29-14.14-4.92-26.51H40.16Z" fill="#ffcc65"/><g clip-path="url(#clippath-1)"><g><g><path d="M44.52,47.25c.8,3.98-.52,7.82-2.95,8.58-2.43,.76-5.05-1.86-5.86-5.84-.8-3.98,.52-7.82,2.95-8.58,2.43-.76,5.05,1.86,5.86,5.84Z" fill="#fff"/><ellipse cx="79.49" cy="48.61" rx="7.38" ry="4.57" transform="translate(20.66 120.87) rotate(-82.3)" fill="#f4f1ef"/></g><path d="M77.23,86.28c-5.1-1.36-8.75-5.82-9.05-11.07l-.99-17.37h-16.22l-1.04,18.1c-.3,5.3-4.02,9.8-9.19,11.11l-7.97,2.01c-5.4,1.37-8.81,6.68-7.79,12.14l2.63,14H92.36l2.65-14.12c1.01-5.41-2.33-10.69-7.66-12.11l-10.12-2.69Z" fill="#f4f1ef"/><path d="M81.17,42.96c0,14.8-11.46,32.48-21.18,32.48s-21.18-17.69-21.18-32.48,9.48-23.62,21.18-23.62,21.18,8.83,21.18,23.62Z" fill="#fff"/><ellipse cx="40.11" cy="54.83" rx="1.72" ry="1.72" fill="#fff"/><ellipse cx="79.49" cy="54.83" rx="1.72" ry="1.72" fill="#fff"/><path d="M87.35,88.97l-10.12-2.69c-.87-.23-1.7-.56-2.48-.96l.39-.58-5.86-5.15-9.6,9.56-10.28-10.24-5.55,5.79,.56,.77c-1.1,.71-2.33,1.26-3.66,1.6l-7.97,2.01c-5.4,1.37-8.81,6.68-7.79,12.14l2.63,14H92.36l2.65-14.12c1.01-5.41-2.33-10.69-7.66-12.11Z" fill="#fff"/><polygon points="47.6 90.48 55.54 99.92 59.68 89.14 56.81 104.51 47.6 90.48" opacity=".1"/><polygon points="71.75 90.48 63.81 99.92 59.67 89.14 62.54 104.51 71.75 90.48" opacity=".1"/><polygon points="59.67 90.9 48.77 92.17 49.4 86.26 59.67 88.79 59.67 90.9"/><polygon points="59.67 90.9 70.58 92.17 69.94 86.26 59.67 88.79 59.67 90.9"/><polygon points="59.05 90.75 57.45 94.91 55.3 112.55 58.48 110.1 59.05 90.75"/><polygon points="60.19 90.35 61.78 94.52 63.93 112.15 60.75 109.7 60.19 90.35"/></g></g><path d="M53.46,18.88c-3.9,.48-9.51,.79-13.19,8.49-3.86,8.09-2.13,14.68-2.13,14.68,4.32-.32,4.94,6.9,4.94,6.9,0,0,2.12-2.44,2.19-5.01,3.2-.32,16.41-3.43,20.28-12.13,9.47,.05,10.41,13.19,10.32,14.87l1.27,2.27s1.24-7.04,4.42-7.02c0,0,1.91-9.5-3.21-16.5-6.27-8.58-17.39-13.81-24.9-6.54Z" fill="#ffcc65"/><path d="M82.07,54.25s2.7,17.59,8.89,25.14c0,0-7.93-4.27-11.1-18.83l2.2-6.31Z" fill="#ffcc65"/><path d="M66.03,31.66s-11.28,21.64-31.45,18.56c0,0,11.45-5.64,10.81-11.97l20.64-6.59Z" fill="#ffcc65"/><path d="M63.96,30.82s7.54,4.98,9.45,11.55c0,0-.79-9.61-6.78-13.14l-2.67,1.59Z" fill="#ffcc65"/></g></g></g></svg>